<svg xmlns="http://www.w3.org/2000/svg" version="1.0" width="500" height="500" viewBox="-250 -250 500 500" preserveAspectRatio="xMidYMid">
    <rect x="-250" y="-250" width="500" height="500" fill="#303630" />

    <path
        stroke="white"
        stroke-width="8"
        stroke-linecap="round"
        d="M    0 -250 v  40
           M  250    0 h -40
           M    0  250 v -40
           M -250    0 h  40" />
    <path
        stroke="#ff0080"
        stroke-width="8"
        stroke-linecap="round"
        d="M  207.8  120.0 L  181.9  105.0
           M  120.0  207.8 L  105.0  181.9
           M -120.0  207.8 L -105.0  181.9
           M -207.8  120.0 L -181.9  105.0
           M -207.8 -120.0 L -181.9 -105.0
           M -120.0 -207.8 L -105.0 -181.9
           M  120.0 -207.8 L  105.0 -181.9
           M  207.8 -120.0 L  181.9 -105.0" />

    <line x1="0" y1="0" x2="0" y2="-100" stroke-linecap="round" stroke-width="12" stroke="#eee" transform="rotate(300)" />
    <line x1="0" y1="0" x2="0" y2="-180" stroke-linecap="round" stroke-width="8" stroke="#eee" transform="rotate(60)" />
    <line x1="0" y1="0" x2="0" y2="-190" stroke-linecap="round" stroke-width="4" stroke="#ff0080" transform="rotate(18)" />
</svg>
